<svg width="3565" height="1525" xmlns="http://www.w3.org/2000/svg" xmlns:xlink="http://www.w3.org/1999/xlink" xml:space="preserve" overflow="hidden"><defs><clipPath id="clip0"><rect x="535" y="714" width="3565" height="1525"/></clipPath><clipPath id="clip1"><rect x="613" y="786" width="550" height="218"/></clipPath><clipPath id="clip2"><rect x="613" y="786" width="550" height="218"/></clipPath><clipPath id="clip3"><rect x="613" y="786" width="550" height="218"/></clipPath><clipPath id="clip4"><rect x="1679" y="1523" width="446" height="155"/></clipPath><clipPath id="clip5"><rect x="1679" y="1523" width="446" height="155"/></clipPath><clipPath id="clip6"><rect x="1679" y="1523" width="446" height="155"/></clipPath><clipPath id="clip7"><rect x="3842" y="1278" width="209" height="228"/></clipPath><clipPath id="clip8"><rect x="3842" y="1278" width="209" height="228"/></clipPath><clipPath id="clip9"><rect x="3842" y="1278" width="209" height="228"/></clipPath><linearGradient x1="1.40586" y1="218.842" x2="10.7836" y2="213.301" gradientUnits="userSpaceOnUse" spreadMethod="pad" id="fill10"><stop offset="0" stop-color="#909CA9"/><stop offset="1" stop-color="#EDEDEE"/></linearGradient><linearGradient x1="1.7751" y1="35.2979" x2="9.32133" y2="35.2979" gradientUnits="userSpaceOnUse" spreadMethod="pad" id="fill11"><stop offset="0" stop-color="#939FAB"/><stop offset="1" stop-color="#DCDEE1"/></linearGradient><radialGradient cx="-20960.5" cy="-6698.44" r="898.12" gradientUnits="userSpaceOnUse" spreadMethod="pad" id="fill12" gradientTransform="matrix(-0.0107131 -0.00160955 0.00325525 -0.0214263 -134.115 -81.2932)"><stop offset="0" stop-color="#EE352C"/><stop offset="1" stop-color="#A91D22"/></radialGradient><clipPath id="clip13"><rect x="3819" y="1786" width="255" height="218"/></clipPath><clipPath id="clip14"><rect x="3819" y="1786" width="255" height="218"/></clipPath><clipPath id="clip15"><rect x="3819" y="1786" width="651" height="218"/></clipPath><clipPath id="clip16"><rect x="3448" y="895" width="604" height="205"/></clipPath><clipPath id="clip17"><rect x="3448" y="895" width="604" height="205"/></clipPath><clipPath id="clip18"><rect x="3448" y="895" width="604" height="205"/></clipPath></defs><g clip-path="url(#clip0)" transform="translate(-535 -714)"><path d="M537.5 845.02C537.5 774.04 595.041 716.5 666.02 716.5L3188.98 716.5C3259.96 716.5 3317.5 774.04 3317.5 845.02L3317.5 2099.98C3317.5 2170.96 3259.96 2228.5 3188.98 2228.5L666.02 2228.5C595.041 2228.5 537.5 2170.96 537.5 2099.98Z" stroke="#FFFFFF" stroke-width="4.58333" stroke-linejoin="round" stroke-miterlimit="10" fill="#AB3C33" fill-rule="evenodd"/><path d="M606.5 1138.29C606.5 1114.1 626.103 1094.5 650.285 1094.5L979.715 1094.5C1003.9 1094.5 1023.5 1114.1 1023.5 1138.29L1023.5 1569.71C1023.5 1593.9 1003.9 1613.5 979.715 1613.5L650.285 1613.5C626.103 1613.5 606.5 1593.9 606.5 1569.71Z" stroke="#AB3C33" stroke-width="4.58333" stroke-linejoin="round" stroke-miterlimit="10" fill="#FFFFFF" fill-rule="evenodd" fill-opacity="0.901961"/><text fill="#303030" font-family="DengXian,DengXian_MSFontService,sans-serif" font-weight="400" font-size="87" transform="matrix(1 0 0 1 684.203 1268)">用户上<tspan font-size="87" x="0" y="106">传的图</tspan><tspan font-size="87" x="87.0834" y="213">片</tspan></text><path d="M606.5 1677.29C606.5 1653.1 626.103 1633.5 650.285 1633.5L979.715 1633.5C1003.9 1633.5 1023.5 1653.1 1023.5 1677.29L1023.5 2108.71C1023.5 2132.9 1003.9 2152.5 979.715 2152.5L650.285 2152.5C626.103 2152.5 606.5 2132.9 606.5 2108.71Z" stroke="#506084" stroke-width="4.58333" stroke-linejoin="round" stroke-miterlimit="10" fill="#FFFFFF" fill-rule="evenodd" fill-opacity="0.901961"/><text fill="#303030" font-family="DengXian,DengXian_MSFontService,sans-serif" font-weight="400" font-size="87" transform="matrix(1 0 0 1 684.191 1754)">编译后<tspan font-size="87" x="-23.1458" y="106">的</tspan><tspan font-family="Corbel,Corbel_MSFontService,sans-serif" font-size="87" x="63.9375" y="106">Vue.js</tspan><tspan font-size="87" x="0" y="213">静态文</tspan><tspan font-size="87" x="87.0834" y="319">件</tspan></text><path d="M1093.5 1205.59C1093.5 1144.24 1143.24 1094.5 1204.59 1094.5L3136.41 1094.5C3197.76 1094.5 3247.5 1144.24 3247.5 1205.59L3247.5 2041.41C3247.5 2102.76 3197.76 2152.5 3136.41 2152.5L1204.59 2152.5C1143.24 2152.5 1093.5 2102.76 1093.5 2041.41Z" stroke="#FFFFFF" stroke-width="4.58333" stroke-linejoin="round" stroke-miterlimit="10" fill="#506084" fill-rule="evenodd"/><text fill="#FFFFFF" font-family="Corbel,Corbel_MSFontService,sans-serif" font-weight="400" font-size="165" transform="matrix(1 0 0 1 1174.87 1313)">Supervisor + Daphne</text><path d="M1147.5 1495.37C1147.5 1478.32 1161.32 1464.5 1178.37 1464.5L1547.63 1464.5C1564.68 1464.5 1578.5 1478.32 1578.5 1495.37L1578.5 1727.63C1578.5 1744.68 1564.68 1758.5 1547.63 1758.5L1178.37 1758.5C1161.32 1758.5 1147.5 1744.68 1147.5 1727.63Z" stroke="#599EA5" stroke-width="4.58333" stroke-linejoin="round" stroke-miterlimit="10" fill="#FFFFFF" fill-rule="evenodd" fill-opacity="0.901961"/><text fill="#303030" font-family="Corbel,Corbel_MSFontService,sans-serif" font-weight="400" font-size="87" transform="matrix(1 0 0 1 1196.7 1635)">Channels</text><path d="M1147.5 1809.48C1147.5 1792.37 1161.37 1778.5 1178.47 1778.5L1547.52 1778.5C1564.63 1778.5 1578.5 1792.37 1578.5 1809.48L1578.5 2042.53C1578.5 2059.63 1564.63 2073.5 1547.52 2073.5L1178.47 2073.5C1161.37 2073.5 1147.5 2059.63 1147.5 2042.53Z" stroke="#758F21" stroke-width="4.58333" stroke-linejoin="round" stroke-miterlimit="10" fill="#FFFFFF" fill-rule="evenodd" fill-opacity="0.901961"/><text fill="#303030" font-family="Corbel,Corbel_MSFontService,sans-serif" font-weight="400" font-size="87" transform="matrix(1 0 0 1 1233.59 1950)">Asgiref</text><path d="M1635.5 1535.92C1635.5 1500.89 1663.89 1472.5 1698.92 1472.5L3115.08 1472.5C3150.11 1472.5 3178.5 1500.89 3178.5 1535.92L3178.5 2013.08C3178.5 2048.11 3150.11 2076.5 3115.08 2076.5L1698.92 2076.5C1663.89 2076.5 1635.5 2048.11 1635.5 2013.08Z" stroke="#FFFFFF" stroke-width="4.58333" stroke-linejoin="round" stroke-miterlimit="10" fill="#599EA5" fill-rule="evenodd"/><path d="M1674.5 1773.06C1674.5 1757.29 1687.29 1744.5 1703.06 1744.5L3110.94 1744.5C3126.71 1744.5 3139.5 1757.29 3139.5 1773.06L3139.5 1987.94C3139.5 2003.71 3126.71 2016.5 3110.94 2016.5L1703.06 2016.5C1687.29 2016.5 1674.5 2003.71 1674.5 1987.94Z" stroke="#894A27" stroke-width="4.58333" stroke-linejoin="round" stroke-miterlimit="10" fill="#FFFFFF" fill-rule="evenodd" fill-opacity="0.901961"/><text fill="#303030" font-family="Corbel,Corbel_MSFontService,sans-serif" font-weight="400" font-size="87" transform="matrix(1 0 0 1 1921.56 1904)">Channels Integration Layer</text><path d="M3395.5 807.334C3395.5 763.795 3430.8 728.5 3474.33 728.5L4018.67 728.5C4062.2 728.5 4097.5 763.795 4097.5 807.334L4097.5 1122.67C4097.5 1166.2 4062.2 1201.5 4018.67 1201.5L3474.33 1201.5C3430.8 1201.5 3395.5 1166.2 3395.5 1122.67Z" stroke="#FFFFFF" stroke-width="4.58333" stroke-linejoin="round" stroke-miterlimit="10" fill="#758F21" fill-rule="evenodd"/><text fill="#FFFFFF" font-family="Corbel,Corbel_MSFontService,sans-serif" font-weight="400" font-size="151" transform="matrix(1 0 0 1 3463.31 922)">CDN</text><path d="M3395.5 1314.33C3395.5 1270.8 3430.8 1235.5 3474.33 1235.5L4018.67 1235.5C4062.2 1235.5 4097.5 1270.8 4097.5 1314.33L4097.5 1629.67C4097.5 1673.2 4062.2 1708.5 4018.67 1708.5L3474.33 1708.5C3430.8 1708.5 3395.5 1673.2 3395.5 1629.67Z" stroke="#FFFFFF" stroke-width="4.58333" stroke-linejoin="round" stroke-miterlimit="10" fill="#8C7724" fill-rule="evenodd"/><text fill="#FFFFFF" font-family="Corbel,Corbel_MSFontService,sans-serif" font-weight="400" font-size="151" transform="matrix(1 0 0 1 3463.31 1432)">SQL <tspan font-size="151" x="0" y="166">Server</tspan></text><path d="M3395.5 1822.33C3395.5 1778.8 3430.8 1743.5 3474.33 1743.5L4018.67 1743.5C4062.2 1743.5 4097.5 1778.8 4097.5 1822.33L4097.5 2137.67C4097.5 2181.2 4062.2 2216.5 4018.67 2216.5L3474.33 2216.5C3430.8 2216.5 3395.5 2181.2 3395.5 2137.67Z" stroke="#FFFFFF" stroke-width="4.58333" stroke-linejoin="round" stroke-miterlimit="10" fill="#894A27" fill-rule="evenodd"/><text fill="#FFFFFF" font-family="Corbel,Corbel_MSFontService,sans-serif" font-weight="400" font-size="151" transform="matrix(1 0 0 1 3463.31 1939)">Redis <tspan font-size="151" x="0" y="166">Backend</tspan></text><path d="M3135.5 1560 3223 1472.5 3223 1516.25 3357 1516.25 3357 1472.5 3444.5 1560 3357 1647.5 3357 1603.75 3223 1603.75 3223 1647.5Z" stroke="#B69032" stroke-width="4.58333" stroke-linejoin="round" stroke-miterlimit="10" fill="#F7C547" fill-rule="evenodd"/><path d="M3005.5 1874 3093 1786.5 3093 1830.25 3357 1830.25 3357 1786.5 3444.5 1874 3357 1961.5 3357 1917.75 3093 1917.75 3093 1961.5Z" stroke="#B69032" stroke-width="4.58333" stroke-linejoin="round" stroke-miterlimit="10" fill="#F7C547" fill-rule="evenodd"/><g clip-path="url(#clip1)"><g clip-path="url(#clip2)"><g clip-path="url(#clip3)"><path d="M386.126 177.909 381.421 177.909 381.421 171.563 392.362 171.563 392.362 168.718 378.357 168.718 378.357 180.754 385.907 180.754C388.642 180.754 390.174 181.957 390.174 184.255L390.174 186.662C390.174 189.179 388.423 190.601 385.36 190.601 382.406 190.601 380.655 189.179 380.655 186.662L380.655 184.364 377.591 184.364 377.591 186.553C377.591 190.71 380.655 193.336 385.25 193.336 389.955 193.336 393.019 190.601 393.019 186.553L393.019 184.255C393.238 180.425 390.393 177.909 386.126 177.909" fill="#999999" transform="matrix(1 0 0 1.00014 614.689 786)"/><path d="M374.965 171.453 374.965 168.609 360.085 168.609 360.085 192.899 363.149 192.899 363.149 183.161 373.762 183.161 373.762 180.207 363.149 180.207 363.149 171.453Z" fill="#999999" transform="matrix(1 0 0 1.00014 614.689 786)"/><path d="M347.721 169.156 349.253 169.156 349.253 166.42 347.393 166.42C343.454 166.42 341.156 168.827 341.156 172.985L341.156 175.502 339.187 175.502 339.187 178.237 341.266 178.237 341.266 192.899 344.22 192.899 344.22 178.237 349.034 178.237 349.034 175.502 344.22 175.502 344.22 173.204C344.11 170.359 345.204 169.156 347.721 169.156" fill="#999999" transform="matrix(1 0 0 1.00014 614.689 786)"/><path d="M309.535 190.163C307.128 190.163 306.034 189.069 306.034 186.224L306.034 178.237 310.739 178.237 310.739 175.502 306.034 175.502 306.034 170.359 303.08 170.359 303.08 175.502 300.782 175.502 300.782 178.237 303.08 178.237 303.08 186.881C303.08 191.039 305.049 192.899 308.879 192.899L311.067 192.899 311.067 190.163 309.535 190.163Z" fill="#999999" transform="matrix(1 0 0 1.00014 614.689 786)"/><path d="M297.5 175.174C295.53 175.064 293.561 175.83 292.138 177.252L291.591 175.502 289.512 175.502 289.512 192.899 292.466 192.899 292.466 181.957C292.466 179.112 294.545 177.799 297.062 177.799 297.609 177.799 298.047 177.909 298.594 178.018L298.594 175.283C298.156 175.174 297.828 175.174 297.5 175.174" fill="#999999" transform="matrix(1 0 0 1.00014 614.689 786)"/><path d="M522.676 71.2292 508.452 71.2292 492.696 96.0664 477.378 71.2292 462.607 71.2292 484.599 107.227 462.388 144.428 476.393 144.428 492.04 119.262 507.358 144.428 522.129 144.428 499.917 108.102Z" fill="#FFFFFF" transform="matrix(1 0 0 1.00014 614.689 786)"/><path d="M444.116 71.2292 444.116 121.013 415.34 71.2292 403.523 71.2292 403.523 144.428 415.34 144.428 415.34 94.8628 444.116 144.428 456.151 144.428 456.151 71.2292Z" fill="#FFFFFF" transform="matrix(1 0 0 1.00014 614.689 786)"/><path d="M380.983 71.2292 393.675 71.2292 393.675 144.428 380.983 144.428Z" fill="#FFFFFF" transform="matrix(1 0 0 1.00014 614.689 786)"/><path d="M371.136 97.27 371.136 93.1122C371.136 78.8883 360.741 69.6974 342.36 69.6974 324.197 69.6974 313.693 78.8883 313.693 93.1122L313.693 122.545C313.693 136.769 324.197 145.96 342.469 145.96 360.741 145.96 371.136 136.769 371.136 122.545L371.136 105.367 341.922 105.367 341.922 117.074 358.334 117.074 358.334 121.779C358.334 129.438 352.535 134.143 342.25 134.143 332.075 134.143 326.276 129.438 326.276 121.779L326.276 93.8781C326.276 86.2191 332.075 81.5142 342.36 81.5142 352.535 81.5142 358.334 86.2191 358.334 93.8781L358.334 97.27 371.136 97.27Z" fill="#FFFFFF" transform="matrix(1 0 0 1.00014 614.689 786)"/><path d="M291.919 71.2292 291.919 121.013 263.143 71.2292 251.217 71.2292 251.217 144.428 263.143 144.428 263.143 94.8628 291.919 144.428 303.846 144.428 303.846 71.2292Z" fill="#FFFFFF" transform="matrix(1 0 0 1.00014 614.689 786)"/><path d="M329.23 175.064C324.416 175.064 321.79 177.799 321.79 182.285L321.79 186.115C321.79 190.601 324.306 193.336 329.23 193.336 334.044 193.336 336.67 190.601 336.67 186.115L336.67 182.285C336.67 177.799 334.154 175.064 329.23 175.064ZM333.825 186.006C333.825 189.069 332.403 190.601 329.339 190.601 326.166 190.601 324.853 189.069 324.853 186.006L324.853 182.504C324.853 179.441 326.276 177.909 329.339 177.909 332.512 177.909 333.825 179.441 333.825 182.504L333.825 186.006Z" fill="#999999" transform="matrix(1 0 0 1.00014 614.689 786)"/><path d="M283.494 175.502 282.947 177.252C281.525 175.721 279.555 174.955 277.477 175.064 273.209 175.064 270.693 177.143 270.693 182.395L270.693 186.006C270.693 191.148 273.209 193.336 277.477 193.336 279.555 193.446 281.525 192.68 282.947 191.148L283.494 192.899 285.573 192.899 285.573 175.502 283.494 175.502ZM278.024 190.601C275.069 190.601 273.647 189.179 273.647 185.896L273.647 182.614C273.647 179.331 275.069 177.909 278.024 177.909 280.759 177.909 282.4 179.222 282.619 182.067L282.619 186.443C282.4 189.288 280.65 190.601 278.024 190.601" fill="#999999" transform="matrix(1 0 0 1.00014 614.689 786)"/><path d="M260.736 168.609 251.217 168.609 251.217 192.899 254.281 192.899 254.281 184.036 260.736 184.036C265.441 184.036 268.176 181.629 268.176 177.581L268.176 175.064C268.176 171.016 265.441 168.609 260.736 168.609M265.222 177.69C265.222 179.988 263.8 181.191 260.955 181.191L254.281 181.191 254.281 171.453 260.955 171.453C263.8 171.453 265.222 172.657 265.222 174.955L265.222 177.69Z" fill="#999999" transform="matrix(1 0 0 1.00014 614.689 786)"/><path d="M1.53181 162.7C2.51655 164.451 3.93894 165.764 5.68958 166.749L89.9392 215.329 89.9392 215.329C93.4405 217.408 97.7076 217.408 101.1 215.329L185.349 166.749C188.85 164.779 190.929 161.059 190.929 157.011L190.929 59.85 190.929 59.85C190.929 55.8017 188.85 52.0816 185.349 50.1121L101.1 1.53181 101.1 1.53181C97.5982-0.547075 93.331-0.547075 89.9392 1.53181L89.9392 1.53181 5.68958 50.1121C2.07889 52.0816 0 55.8017 0 59.85L0 59.85 0 157.12C0 159.089 0.43766 160.95 1.53181 162.7" fill="#009639" transform="matrix(1 0 0 1.00014 614.689 786)"/><path d="M68.4938 145.522C68.4938 151.54 63.6796 156.354 57.6617 156.354 51.6439 156.354 46.8296 151.54 46.8296 145.522L46.8296 145.522 46.8296 71.2292C46.8296 65.4302 51.9722 60.7254 59.0841 60.7254 64.2266 60.7254 70.2445 62.8042 73.8552 67.2903L77.1376 71.2292 122.435 125.39 122.435 71.448 122.435 71.448C122.435 65.4302 127.25 60.6159 133.268 60.6159 139.285 60.6159 144.1 65.4302 144.1 71.448L144.1 71.448 144.1 145.741C144.1 151.54 138.957 156.245 131.845 156.245 126.703 156.245 120.685 154.166 117.074 149.68L68.4938 91.6898 68.4938 145.522 68.4938 145.522Z" fill="#FFFFFF" transform="matrix(1 0 0 1.00014 614.689 786)"/><path d="M537.666 141.145 539.088 141.145 539.088 138.082 540.182 138.082C540.729 138.082 541.276 138.082 541.714 138.301 542.261 138.738 542.589 139.395 542.48 140.051L542.48 140.708 542.48 140.927C542.48 140.927 542.48 141.036 542.48 141.036 542.48 141.036 542.48 141.036 542.48 141.145L543.793 141.145 543.793 141.036C543.793 140.927 543.683 140.817 543.683 140.598 543.683 140.38 543.683 140.161 543.683 140.051L543.683 139.504C543.683 139.067 543.465 138.629 543.246 138.301 542.918 137.863 542.37 137.644 541.933 137.535 542.37 137.535 542.699 137.316 543.027 137.206 543.574 136.878 543.793 136.222 543.793 135.675 543.902 134.799 543.355 134.033 542.589 133.705 541.933 133.486 541.167 133.377 540.401 133.377L537.666 133.377 537.666 141.145ZM541.604 136.878C541.167 136.988 540.729 137.097 540.292 137.097L539.088 137.097 539.088 134.252 540.292 134.252C540.839 134.252 541.386 134.362 541.933 134.581 542.261 134.799 542.48 135.237 542.48 135.675 542.37 136.222 542.042 136.769 541.604 136.878M545.543 132.173C544.23 130.86 542.37 130.094 540.51 130.094 536.571 130.094 533.398 133.268 533.398 137.316 533.398 141.255 536.571 144.428 540.51 144.428 544.449 144.428 547.732 141.255 547.732 137.316 547.622 135.346 546.966 133.596 545.543 132.173M544.887 132.939C546.091 134.033 546.747 135.675 546.638 137.316 546.638 140.708 543.902 143.443 540.51 143.553 538.869 143.553 537.228 142.896 536.134 141.692 534.93 140.489 534.383 138.957 534.383 137.316 534.383 133.924 537.118 131.189 540.51 131.189 542.152 131.079 543.683 131.736 544.887 132.939" fill="#999999" transform="matrix(1 0 0 1.00014 614.689 786)"/></g></g></g><g clip-path="url(#clip4)"><g clip-path="url(#clip5)"><g clip-path="url(#clip6)"><path d="M-173.29 683.086C-173.363 697.084-163.098 705.429-146.718 701.635L-146.718 664.535C-163.305 659.484-173.22 669.704-173.29 683.086M-146.217 610.891-123.656 610.891-123.656 717.678C-145.281 721.213-165.993 723.456-180.811 715.172-199.887 704.505-201.422 670.608-186.325 655.512-178.671 647.858-163.262 642.468-146.718 645.986L-146.718 612.396C-146.761 611.684-146.801 610.975-146.217 610.891" fill="#FFFFFF" fill-rule="evenodd" transform="matrix(1 0 0 1.002 1886.74 913.947)"/><path d="M-87.0572 634.454-109.618 634.454-109.618 610.891-87.0572 610.891-87.0572 634.454Z" fill="#FFFFFF" fill-rule="evenodd" transform="matrix(1 0 0 1.002 1886.74 913.947)"/><path d="M183.673 702.637C208.267 712.195 210.987 658.616 186.18 663.533 170.773 666.586 171.268 697.818 183.673 702.637M184.675 644.982C203.456 642.974 217.627 651.263 223.279 664.033 232.924 685.825 222.75 710.829 207.237 718.18 199.196 721.99 190.777 722.352 183.171 721.69 159.662 719.639 144.835 695.68 153.09 669.047 154.382 664.878 155.834 662.329 156.6 661.026 161.71 652.337 170.338 646.515 184.675 644.982" fill="#FFFFFF" fill-rule="evenodd" transform="matrix(1 0 0 1.002 1886.74 913.947)"/><path d="M-55.973 694.116C-62.2131 704.603-46.5348 707.115-36.421 704.142L-36.421 688.6C-44.1922 689.686-53.0374 689.18-55.973 694.116M-16.3669 718.681C-35.0031 719.753-63.3252 726.102-73.5206 713.669-79.5104 706.362-78.8662 692.428-73.5206 685.593-66.6125 676.759-51.5325 674.832-37.925 673.56-36.6894 670.517-37.5225 665.568-38.9275 663.533-51.3746 660.361-63.7415 665.274-72.5173 669.047L-72.5173 651.5C-59.2626 645.411-28.5603 638.998-19.3745 653.005-14.5503 660.36-16.3669 673.19-16.3669 684.588L-16.3669 718.681Z" fill="#FFFFFF" fill-rule="evenodd" transform="matrix(1 0 0 1.002 1886.74 913.947)"/><path d="M62.847 719.685 40.2864 719.685 40.2864 690.606C40.2864 681.031 41.8349 668.891 36.7758 665.037 32.814 662.016 23.4149 663.533 17.7255 665.037L17.7255 719.685-4.83578 719.685-4.83578 649.996C18.2272 644.005 59.857 637.583 62.847 666.54 64.3214 680.818 61.7546 702.237 62.847 719.685" fill="#FFFFFF" fill-rule="evenodd" transform="matrix(1 0 0 1.002 1886.74 913.947)"/><path d="M96.4375 695.618C100.234 701.761 110.514 704.065 118.998 700.132 118.532 688.398 118.369 676.361 118.497 664.033 98.9991 658.883 87.3792 680.966 96.4375 695.618M153.09 647.991C151.082 654.005 148.143 659.087 145.57 664.535 143.245 665.056 141.23 663.611 140.055 664.535 139.54 688.974 145.259 722.105 135.543 739.738 129.692 750.355 118.921 757.165 102.453 758.287 90.4573 759.107 81.1467 757.147 72.3724 753.776L72.3724 732.72C82.6639 738.727 108.669 743.627 115.99 731.215 118.144 727.562 118.007 723.789 118.998 718.18 114.284 718.428 109.709 720.611 103.958 720.687 80.3131 721 65.6852 702.174 71.3696 676.065 73.5683 665.968 79.4854 657.836 87.4134 653.005 103.879 642.969 129.188 643.73 153.09 647.991" fill="#FFFFFF" fill-rule="evenodd" transform="matrix(1 0 0 1.002 1886.74 913.947)"/><path d="M-87.0572 646.386C-87.0828 662.998-87.079 674.937-87.0806 695.12-88.0391 714.955-87.8161 730.749-95.0785 740.239-96.5108 742.11-99.5527 744.841-102.098 746.757-104.235 748.366-108.308 751.629-110.621 751.771-112.952 751.914-118.94 748.535-121.651 747.257-125.21 745.582-128.5 743.355-132.179 742.245-123.597 736.928-115.451 732.94-112.125 722.19-109.233 712.842-109.618 699.295-109.618 686.093-109.618 673.056-109.56 657.901-109.56 646.391L-87.0572 646.386Z" fill="#FFFFFF" fill-rule="evenodd" transform="matrix(1 0 0 1.002 1886.74 913.947)"/></g></g></g><g clip-path="url(#clip7)"><g clip-path="url(#clip8)"><g clip-path="url(#clip9)"><path d="M98.3823 119.95 52.7857 134.835 13.1189 152.343 2.02046 155.275C-0.808184 157.962-3.76839 160.688-6.97294 163.441-10.4876 166.477-13.7579 169.23-16.2765 171.232-19.0675 173.44-23.2024 177.575-25.3074 180.187-28.4462 184.116-30.9271 188.288-31.9891 191.493-33.8873 197.282-32.957 203.136-29.3014 208.549-24.612 215.437-15.2709 222.467-4.38863 227.259 1.15589 229.703 10.497 232.842 17.5263 234.599 29.2074 237.559 51.8178 240.764 64.26 241.252 66.7786 241.356 70.1523 241.356 70.2932 241.252 70.5658 241.083 72.5016 237.39 74.7382 232.813 82.3878 217.204 87.9041 202.553 90.9019 190.045 92.6968 182.462 94.1065 172.369 95.0368 160.406 95.2812 157.06 95.3845 145.858 95.1778 142.071 94.8677 135.869 94.3132 130.841 93.458 125.908 93.3171 125.184 93.2889 124.526 93.3547 124.498 93.4956 124.395 93.9091 124.254 99.5194 122.637L98.3823 119.95 98.3823 119.95 98.3823 119.95 98.3823 119.95ZM87.9793 126.049C88.3928 126.049 89.4923 136.63 89.7742 143.312 89.84 144.721 89.8118 145.652 89.7366 145.652 89.4641 145.652 83.9102 142.381 79.9538 139.9 76.505 137.73 69.9643 133.388 68.9306 132.561 68.5829 132.317 68.6205 132.288 71.4491 131.321 76.223 129.704 87.6034 126.049 87.9793 126.049ZM64.7487 133.698C65.0588 133.698 65.8482 134.149 67.7465 135.314 74.8416 139.759 84.4928 145.135 88.6277 146.93 89.9058 147.484 90.0373 147.277 87.1147 149.27 80.8466 153.546 73.0185 157.746 63.4425 161.985 61.7509 162.746 60.3413 163.328 60.3037 163.328 60.2379 163.328 60.4447 162.464 60.7172 161.43 63.029 152.85 64.3352 144.167 64.401 137.203 64.4386 133.754 64.4386 133.754 64.7487 133.651 64.6829 133.698 64.7205 133.698 64.7487 133.698L64.7487 133.698ZM59.9654 135.521C60.1721 135.728 60.0312 143.443 59.7586 145.548 59.1384 150.576 58.1705 155.265 56.5917 160.537 56.2158 161.815 55.8681 162.877 55.8023 162.952 55.6613 163.122 50.9438 158.507 49.3932 156.713 46.7055 153.611 44.6005 150.51 43.0499 147.475 42.2605 145.924 41.02 142.889 41.1234 142.785 41.6591 142.419 59.8244 135.39 59.9654 135.521L59.9654 135.521ZM37.4208 144.383C37.4584 144.383 37.4866 144.383 37.5242 144.421 37.59 144.486 37.8343 145.041 38.041 145.661 39.1405 148.659 41.6215 153.066 43.7641 155.895 46.1041 158.996 49.1771 162.304 51.7238 164.475 52.5508 165.161 53.312 165.819 53.4153 165.922 53.6221 166.129 53.6879 166.091 48.0776 168.234 41.5651 170.715 34.47 173.196 26.3318 175.818 24.3865 176.447 22.4506 177.077 20.5053 177.716 20.1952 177.819 20.2986 177.65 21.1913 176.231 25.2229 169.925 31.3594 157.549 34.8083 148.8 35.3909 147.287 35.983 145.764 36.0864 145.426 36.2273 144.947 36.3965 144.768 36.8476 144.533 37.0825 144.449 37.3174 144.383 37.4208 144.383L37.4208 144.383ZM30.5324 147.24C30.6358 147.306 28.8785 150.999 27.1587 154.373 23.8132 160.885 20.167 167.294 15.2709 175.085 14.4439 176.428 13.6546 177.669 13.5512 177.81 13.382 178.054 13.3068 177.979 12.7618 176.917 11.5871 174.605 10.6286 171.645 10.1117 168.92 9.59484 166.232 9.69821 161.543 10.2809 158.648 10.7319 156.515 10.6943 156.543 11.7281 156.027 16.1261 153.79 30.3915 147.099 30.5324 147.24L30.5324 147.24ZM89.981 149.655 89.981 151.102C89.981 158.789 89.154 169.333 87.9511 177.021 87.7444 178.364 87.5752 179.464 87.5376 179.501 87.5376 179.501 86.5415 179.229 85.3668 178.881 80.1982 177.265 74.5785 174.887 69.5132 172.096 66.1677 170.273 61.3092 167.275 61.4502 167.134 61.4878 167.097 62.935 166.345 64.6171 165.443 71.3739 161.928 77.8488 158.141 83.4685 154.382 85.5735 152.972 88.7405 150.698 89.4265 150.078L89.981 149.655 89.981 149.655ZM4.5108 159.851C4.65176 159.851 4.61417 160.124 4.40742 161.364 4.26646 162.257 4.09731 163.911 4.03152 165.048 3.759 170.076 4.58597 173.807 7.06691 178.9 7.75293 180.31 8.30738 181.484 8.26979 181.522 8.02546 181.729-14.7823 188.41-21.9525 190.374-24.0858 190.957-25.9465 191.474-26.0874 191.511-26.3318 191.577-26.36 191.549-26.2566 190.957-25.4672 185.892-21.6048 179.276-16.2295 173.694-12.649 169.972-9.78279 167.802-4.88669 165.011-1.37203 163.009 4.04092 160.011 4.45441 159.88 4.44501 159.851 4.47321 159.851 4.5108 159.851L4.5108 159.851ZM58.2738 169.465C58.3114 169.427 59.1384 169.878 60.1345 170.461 67.5116 174.737 77.783 178.693 86.5321 180.733L87.3215 180.902 86.222 181.522C81.636 184.069 66.5812 190.346 51.1787 196.097 48.9421 196.924 46.7337 197.751 46.3202 197.921 45.9067 198.09 45.5308 198.193 45.5308 198.165 45.5308 198.127 46.1511 196.924 46.9405 195.44 51.2445 187.377 55.5862 177.556 57.7946 170.734 58.0671 170.085 58.2362 169.503 58.2738 169.465L58.2738 169.465ZM52.7951 171.26C52.8327 171.297 52.5508 172.021 52.2124 172.848 49.2147 180.122 45.2865 188.044 40.2494 196.934 38.9714 199.208 37.9095 201.031 37.8719 201.031 37.8343 201.031 36.8006 200.411 35.5601 199.65 28.2583 195.167 21.774 189.66 17.5357 184.313L16.9155 183.552 20.0542 182.687C31.2936 179.624 40.8321 176.316 50.3142 172.247 51.658 171.711 52.7575 171.26 52.7951 171.26ZM86.8422 183.148C86.8422 183.148 86.8798 183.185 86.8422 183.148 86.8798 183.937 85.1225 191.042 83.6752 196.173 82.4724 200.477 81.4386 203.86 79.5404 209.818 78.7134 212.44 77.9898 214.61 77.9522 214.61 77.9146 214.61 77.7078 214.573 77.5011 214.507 67.2672 212.646 58.0953 210.062 49.4872 206.613 47.072 205.645 43.6325 204.095 43.4258 203.926 43.36 203.86 45.4275 202.892 48.04 201.755 63.7244 194.895 79.982 187.104 85.5641 183.768 86.222 183.354 86.7388 183.148 86.8422 183.148L86.8422 183.148ZM8.2322 185.835C8.29798 185.901 3.92815 192.207-2.20841 200.796-4.34164 203.794-6.82258 207.309-7.75293 208.615-8.68328 209.921-10.0929 211.989-10.8917 213.229L-12.3389 215.466-13.8895 214.159C-15.7126 212.646-18.889 209.404-20.2986 207.609-23.2588 203.926-25.2605 200.026-26.0498 196.483-26.4257 194.829-26.4257 194.002-26.0874 193.898-25.5706 193.757-16.3704 191.587-7.75293 189.594-2.96021 188.495 2.58431 187.179 4.58597 186.7 6.57824 186.221 8.20401 185.835 8.2322 185.835L8.2322 185.835ZM12.649 187.527 13.7485 188.767C18.7104 194.312 23.7756 198.419 29.9122 201.999 31.0117 202.619 31.8387 203.174 31.7729 203.202 31.5286 203.371 10.4782 210.851 0.723607 214.225-4.75513 216.152-9.26592 217.702-9.30351 217.702-9.3411 217.702-9.65122 217.495-9.98953 217.251L-10.6098 216.8-9.61363 215.353C-6.3715 210.664-2.31178 205.533 6.55005 194.848L12.649 187.527 12.649 187.527ZM40.1461 207.205C40.1837 207.168 41.6967 207.722 43.5574 208.408 48.04 210.1 51.5828 211.162 56.3473 212.374 62.202 213.859 70.6879 215.306 75.678 215.719 76.4392 215.785 76.8527 215.86 76.7117 215.964 76.4674 216.105 71.4021 217.787 67.6807 218.962 61.7509 220.822 43.6607 226.16 28.9067 230.398 26.1814 231.188 23.8414 231.845 23.7005 231.883 23.3528 231.949 22.2157 231.639 22.2157 231.507 22.2157 231.441 23.0426 230.37 24.0388 229.195 29.0007 223.266 33.9249 216.65 38.0316 210.382 39.1781 208.652 40.1461 207.243 40.1461 207.205L40.1461 207.205ZM34.0753 207.374C34.1129 207.412 31.6601 211.34 27.3937 218.088 25.5706 220.944 23.5313 224.187 22.8077 225.324 22.1217 226.423 21.088 228.152 20.4959 229.111L19.4998 230.868 18.9829 230.727C17.7425 230.379 9.02159 227.316 6.70981 226.386 3.85297 225.248 0.883364 223.867-1.31565 222.702-4.06911 221.217-7.51799 219.018-7.24546 218.943-7.17968 218.905-2.45274 217.636 3.23274 216.086 18.3251 211.989 26.6983 209.611 32.177 207.882 33.1825 207.581 34.0471 207.346 34.0753 207.374L34.0753 207.374ZM76.9842 217.439 77.0218 217.439C77.1628 217.787 71.5807 233.293 69.5414 238.189 69.0903 239.288 68.9212 239.57 68.6768 239.533 68.0942 239.495 59.9936 238.358 55.0599 237.634 46.48 236.328 32.0736 233.81 28.4556 232.983L27.6286 232.813 32.7596 231.639C43.7923 229.158 49.0925 227.814 54.4678 226.16 61.2528 224.093 67.9814 221.508 74.7664 218.341 75.8471 217.853 76.7399 217.477 76.9842 217.439L76.9842 217.439Z" fill="url(#fill10)" transform="matrix(1 0 0 1.00077 3874.94 1264.4)"/><path d="M51.3761 13.6639C50.6149 13.5606 38.3793 17.968 30.4949 21.1725 19.8475 25.5142 11.5777 29.6491 6.47487 33.2295 4.57658 34.5734 2.19901 36.9509 1.82311 37.8813 1.68215 38.229 1.61637 38.6425 1.61637 39.056L6.23054 43.4352 17.2256 46.9499 43.3788 51.6392 73.3004 56.7796 73.6105 54.1953C73.5072 54.1953 73.4414 54.1577 73.338 54.1577L69.4099 53.5375 68.6205 52.1279C64.5514 44.9576 60.0781 36.0676 57.4563 30.072 55.4264 25.4202 53.4905 20.0448 52.4286 16.1825 51.8272 13.8425 51.7614 13.7015 51.3761 13.6639L51.3761 13.6639 51.3761 13.6639 51.3761 13.6639ZM50.831 15.4213 50.8686 15.4213C50.9062 15.4589 51.0378 16.4174 51.1787 17.5545 51.7614 22.3754 52.8327 27.0272 54.5242 32.0642 55.8023 35.8514 55.8023 35.6447 54.3175 35.203 50.8028 34.2351 35.0526 31.5192 23.6441 29.931 21.821 29.6867 20.2704 29.4517 20.2704 29.4141 20.1294 29.2732 28.5026 24.9033 32.1958 23.1742 36.9039 21.0034 49.8631 15.5998 50.831 15.4213L50.831 15.4213ZM17.6109 30.8614 18.9547 31.3124C26.2566 33.7934 44.6287 37.308 54.7592 38.135 55.8963 38.2384 56.8642 38.3418 56.8924 38.3418 56.93 38.3793 55.9621 38.8962 54.7216 39.4789 49.8255 41.9222 44.4501 44.92 40.7287 47.2318 39.6292 47.9178 38.6237 48.4723 38.4921 48.4723 38.3512 48.4723 37.6275 48.3313 36.8757 48.2279L35.4943 48.0212 32.0454 44.6475C25.9841 38.7552 21.2289 34.2069 19.3964 32.4777L17.6109 30.8614ZM16.2295 31.9327 21.088 37.994C23.7381 41.3396 26.4257 44.6099 27.0178 45.3335 27.6004 46.0571 28.0891 46.6397 28.0515 46.6773 27.9105 46.7807 21.0222 45.4369 17.3666 44.6099 13.6076 43.7453 12.057 43.3318 9.75459 42.6082L7.8563 41.988 7.8563 41.5087C7.89389 39.1969 10.8165 35.7574 15.7784 32.2428L16.2295 31.9327 16.2295 31.9327ZM57.5126 40.2025C57.6536 40.2025 57.8228 40.5126 58.2362 41.4429 59.4109 44.0272 63.0572 50.9908 63.9593 52.3346 64.2318 52.7857 64.7205 52.8139 59.862 52.0245 48.1809 50.1262 44.4219 49.506 44.4219 49.4402 44.4219 49.4026 44.7696 49.1677 45.2113 48.9233 48.8294 46.9217 52.485 44.3749 55.7177 41.6497 56.5071 40.9919 57.2307 40.3716 57.3717 40.2682 57.4093 40.2025 57.4844 40.1649 57.5126 40.2025L57.5126 40.2025Z" fill="url(#fill11)" transform="matrix(1 0 0 1.00077 3874.94 1264.4)"/><path d="M2.06745 37.4114C2.06745 37.4114 1.30625 38.6143 2.02986 40.4092 2.48094 41.5087 3.78719 42.8526 5.27199 44.234 5.27199 44.234 20.6087 59.1948 22.4694 61.328 30.9459 71.1108 34.6297 80.762 34.9775 94.0689 35.1842 102.611 33.5678 110.129 29.5363 118.85 22.366 134.487 7.23607 151.76-16.0979 170.912L-12.6866 169.775C-10.4782 168.121-7.4804 166.364-0.45108 162.501 15.7784 153.611 34.0471 145.445 56.4413 137.034 88.6935 124.902 141.733 110.702 171.927 106.088L175.066 105.609 174.587 104.848C171.833 100.572 169.935 97.9218 167.661 95.0932 161.045 86.8892 153.019 80.2358 143.19 74.7288 129.676 67.1827 112.206 61.2904 90.0843 56.9112 85.9118 56.0842 76.7493 54.496 69.3065 53.3589 53.5187 50.9156 43.3224 49.224 32.083 47.2976 28.0515 46.6115 22.0183 45.5778 18.0244 44.7133 15.9569 44.2622 11.9912 43.3318 8.89003 42.2699 6.40909 41.302 2.81925 40.3434 2.06745 37.4114L2.06745 37.4114ZM10.9575 46.0289C10.9951 45.9913 11.5401 46.1981 12.2637 46.4424 13.57 46.8935 15.2615 47.4103 17.2632 47.9554 18.7762 48.3689 20.2892 48.773 21.8116 49.1583 23.879 49.6751 25.5988 50.1544 25.6364 50.1544 25.8807 50.3987 29.3578 61.5254 30.5324 65.8012 30.9835 67.4176 31.3218 68.799 31.2936 68.799 31.2561 68.8366 30.8802 68.2446 30.4291 67.4552 26.3975 60.3601 20.0167 53.1616 12.649 47.3727 11.6811 46.6773 10.9575 46.0571 10.9575 46.0289L10.9575 46.0289ZM27.9105 50.7089C28.0797 50.7089 28.8409 50.8122 29.7712 51.019 35.6259 52.3252 46.1417 54.3269 52.8609 55.464 53.998 55.6331 54.8907 55.8399 54.8907 55.9151 54.8907 55.9808 54.4772 56.2252 53.9604 56.4977 52.8233 57.0804 48.2373 59.8056 46.7243 60.8394 42.8995 63.3861 39.4507 66.1489 36.9697 68.6299 35.9736 69.626 35.109 70.453 35.109 70.453 35.109 70.453 34.9023 69.8703 34.7331 69.1467 33.4927 64.354 30.9083 57.2589 28.5684 52.2594 28.1925 51.4701 27.8824 50.7464 27.8824 50.6713 27.873 50.7464 27.873 50.7089 27.9105 50.7089L27.9105 50.7089ZM57.757 56.4037C57.9637 56.4695 58.3114 57.6442 58.9974 60.2285 60.2755 65.228 60.8581 70.8101 60.6514 76.0163 60.5856 77.4635 60.5104 78.8073 60.4447 78.9765L60.3413 79.3242 58.5464 78.7416C54.8625 77.5669 48.8669 75.8095 43.7265 74.3623 40.7945 73.5729 38.4169 72.8493 38.4169 72.7742 38.4169 72.5674 42.6928 68.2916 44.5159 66.6752 48.0024 63.6022 57.4469 56.291 57.757 56.4037L57.757 56.4037ZM60.1345 56.742C60.2379 56.6387 74.3999 59.082 80.8466 60.3225 85.6393 61.2528 92.6029 62.7001 93.007 62.8692 93.2137 62.935 92.4901 63.3485 90.1783 64.3822 81.0815 68.4795 74.3247 72.1727 67.6055 76.6553 65.8482 77.83 64.3634 78.7886 64.3352 78.7886 64.2976 78.7886 64.2694 77.7924 64.2694 76.5801 64.2694 70.0301 62.9632 63.4143 60.548 57.8322 60.3037 57.2965 60.0969 56.7796 60.1345 56.742ZM96.7659 63.9781C96.8693 64.0815 96.4182 66.8725 96.0048 68.5265 94.7643 73.6575 91.4188 81.2789 87.3215 88.4492 86.5979 89.7272 85.94 90.761 85.8743 90.7891 85.8085 90.8267 84.8781 90.3099 83.8068 89.6896 79.8129 87.3497 75.2645 85.1413 70.2932 83.0738 68.9118 82.4912 67.7089 82.0025 67.6713 81.9367 67.427 81.73 78.5254 74.3905 84.3895 70.8759 89.0506 68.0472 96.625 63.8465 96.7659 63.9781L96.7659 63.9781ZM99.3878 64.3916C99.698 64.3916 105.966 66.1113 109.246 67.0793 117.346 69.4944 126.65 72.9057 132.711 75.6592L135.23 76.7963 133.473 77.2098C118.653 80.6211 105.975 84.5492 93.74 89.5111 92.7438 89.9246 91.8417 90.2723 91.7759 90.2723 91.7101 90.2723 92.0484 89.4829 92.4995 88.515 96.1833 80.6962 98.5609 72.5204 99.1529 65.5663 99.1811 64.9085 99.2845 64.3916 99.3878 64.3916L99.3878 64.3916ZM36.9415 78.7322C37.0449 78.6288 41.8376 79.7659 44.4219 80.4895 48.3501 81.589 56.6857 84.3801 56.6857 84.5868 56.6857 84.6244 55.7553 85.4138 54.6558 86.3817 50.145 90.1407 45.8034 94.0971 40.5972 99.1341 39.0466 100.619 37.7403 101.822 37.6651 101.822 37.5994 101.822 37.5618 101.615 37.5994 101.343 38.3887 95.5537 38.2196 88.1109 37.1201 80.5647 37.0073 79.5873 36.9039 78.7604 36.9415 78.7322ZM137.607 78.8355C137.673 78.9013 135.399 82.4912 133.952 84.521 131.884 87.4812 128.849 91.4094 121.989 100.027 118.371 104.575 114.302 109.706 112.958 111.435 111.576 113.155 110.439 114.602 110.411 114.602 110.374 114.602 109.932 113.982 109.443 113.221 105.581 107.432 100.967 102.367 95.4879 97.8185 94.4542 96.9539 93.3171 96.0235 92.9412 95.751 92.5653 95.4785 92.2552 95.1966 92.2552 95.1684 92.2552 95.065 98.1098 92.5465 102.555 90.761 110.345 87.594 120.955 83.7974 128.915 81.3541 133.087 80.0384 137.532 78.7604 137.607 78.8355L137.607 78.8355ZM140.258 79.5216C140.398 79.484 141.225 79.8975 142.222 80.4895 150.595 85.2822 158.799 91.447 165.274 97.7903 167.097 99.5852 171.617 104.265 171.542 104.303 171.542 104.303 169.954 104.444 168.093 104.575 153.583 105.675 135.014 108.748 117.159 113.052 115.956 113.324 114.884 113.569 114.819 113.569 114.753 113.569 116.097 112.225 117.779 110.608 128.257 100.516 133.05 94.1347 138.698 82.7637 139.496 81.0721 140.192 79.6249 140.258 79.5216 140.22 79.5216 140.22 79.5216 140.258 79.5216L140.258 79.5216ZM63.5082 87.3779C63.9875 87.4812 68.4701 89.5863 71.8438 91.2684 74.945 92.819 79.5967 95.2999 79.8411 95.5067 79.8787 95.5443 78.2247 96.3995 76.1854 97.405 69.7106 100.647 64.1567 103.711 58.3678 107.225 56.7138 108.221 55.3324 109.048 55.3042 109.048 55.1633 109.048 55.2009 108.908 56.1312 107.225 59.2324 101.577 61.7133 94.8207 63.1229 88.233 63.2733 87.7256 63.4049 87.3779 63.5082 87.3779L63.5082 87.3779ZM59.0256 88.2048C59.129 88.3082 57.9543 92.5465 57.2307 94.8583 55.8211 99.2375 53.4435 104.716 51.1317 108.851 50.5773 109.819 49.7503 111.229 49.3086 112.018L48.4441 113.4 46.5176 111.539C44.281 109.368 42.4485 108.024 40.1085 106.821 39.1781 106.342 38.4545 105.928 38.4545 105.853 38.4545 105.581 44.3468 100.234 48.8576 96.3807 52.0997 93.5802 58.9317 88.1015 59.0256 88.2048L59.0256 88.2048ZM86.4287 99.4724 88.1203 100.572C91.9826 103.09 96.531 106.427 100.008 109.359 101.972 110.975 105.759 114.386 106.521 115.213L106.934 115.664 104.143 116.454C88.3552 120.833 76.1573 124.723 61.9295 129.967 60.3413 130.55 58.9974 131.039 58.8941 131.039 58.6873 131.039 58.5182 131.208 62.061 127.937 71.1578 119.564 79.2208 110.327 85.2164 101.333L86.4287 99.4724 86.4287 99.4724ZM79.2208 101.267C79.2866 101.333 74.5691 107.987 71.7404 111.746 68.3667 116.228 62.3711 123.737 58.2268 128.633 56.5071 130.663 55.0223 132.354 54.9565 132.392 54.8531 132.429 54.8156 131.913 54.8156 131.114 54.8156 126.941 53.7442 122.496 51.8835 118.709 51.0942 117.121 50.9532 116.745 51.1223 116.576 51.7802 115.993 61.8073 110.27 68.1506 106.859 72.4359 104.575 79.1175 101.202 79.2208 101.267L79.2208 101.267ZM35.6635 111.952C35.7668 111.952 36.5562 112.366 37.4584 112.845 39.6668 114.048 41.6309 115.392 43.3882 116.839 43.454 116.905 42.5612 117.628 41.3865 118.493 38.1162 120.833 33.1543 124.592 30.2599 126.904 27.2245 129.319 27.1212 129.385 27.4689 128.868 29.7431 125.391 30.8802 123.427 32.083 120.908 33.1543 118.672 34.2163 116.012 34.9775 113.71 35.25 112.713 35.5977 111.952 35.6635 111.952L35.6635 111.952ZM47.2788 121.049C47.4479 121.011 47.6547 121.322 48.585 122.703 50.5491 125.635 52.0621 129.563 52.4474 132.73L52.5132 133.416 47.7956 135.239C39.3473 138.51 31.5662 141.752 26.2942 144.167 24.8094 144.853 22.2251 146.093 20.5429 146.92 18.8514 147.785 17.4793 148.433 17.4793 148.405 17.4793 148.368 18.5506 147.578 19.8569 146.61 30.1659 139.13 39.0842 130.926 45.7752 122.731 46.4988 121.867 47.1566 121.077 47.2224 121.04L47.2788 121.049 47.2788 121.049ZM41.941 122.355C42.082 122.496 38.1538 126.941 35.4661 129.657 28.8127 136.442 22.2345 141.752 14.068 146.92 13.0343 147.578 12.104 148.161 12.0006 148.227 11.7563 148.368 12.0664 148.02 15.6562 144.129 17.9304 141.686 19.6502 139.618 21.6142 137.062 22.9205 135.371 23.1648 135.136 25.0631 133.792 30.119 130.146 41.8 122.224 41.941 122.355Z" fill="url(#fill12)" transform="matrix(1 1.84594e-17 -1.84594e-17 1.00077 3874.94 1264.4)"/></g></g></g><g clip-path="url(#clip13)"><g clip-path="url(#clip14)"><g clip-path="url(#clip15)"><path d="M586.064 378.445C586.064 383.475 581.931 387.965 576.543 387.965 572.41 387.965 568.818 389.044 565.765 391.379 562.352 393.536 559.657 396.588 557.503 400.001 553.191 405.749 551.038 412.574 550.139 415.087L550.139 449.216C550.139 454.426 545.649 458.738 540.26 458.738 535.051 458.738 530.74 454.426 530.74 449.216L530.74 378.445C530.74 373.236 535.051 369.105 540.26 369.105 545.649 369.105 550.139 373.237 550.139 378.445L550.139 379.703C551.216 378.445 552.653 377.009 553.911 376.11 559.839 372.16 567.562 368.925 576.543 369.105 581.931 369.105 586.064 373.237 586.064 378.445Z" fill="#636466" transform="matrix(1.00127 0 0 1 3587.52 1477.49)"/><path d="M580.796 413.834C580.977 389.405 600.016 368.928 624.623 368.928 647.974 368.928 666.474 386.351 667.913 410.599L667.913 411.497C667.913 411.857 667.913 412.754 667.734 413.114 667.193 417.425 663.422 420.3 658.392 420.3L601.273 420.3C602.171 424.432 604.146 429.101 607.38 432.155 611.153 436.466 618.337 439.697 624.623 440.236 631.089 440.774 638.813 439.159 643.304 435.746 647.075 431.793 654.44 432.334 656.775 435.206 659.11 437.723 660.906 443.112 656.775 446.881 647.973 454.963 637.376 458.736 624.621 458.736 600.016 458.56 580.977 438.262 580.796 413.834ZM600.375 405.032 651.207 405.032C649.411 397.848 640.25 387.25 624.623 385.993 609.357 386.71 601.812 397.668 600.375 405.032Z" fill="#636466" transform="matrix(1.00127 0 0 1 3587.52 1477.49)"/><path d="M759.42 449.041C759.42 454.251 755.108 458.742 749.719 458.742 744.87 458.742 741.099 455.329 740.199 451.018 733.375 455.687 724.753 458.742 715.771 458.742 691.523 458.742 672.123 438.265 672.123 414.016 672.123 389.406 691.523 368.929 715.771 368.929 724.573 368.929 733.194 371.802 739.839 376.473L739.839 342.705C739.839 337.495 744.151 333.004 749.718 333.004 755.107 333.004 759.419 337.495 759.419 342.705L759.419 413.835 759.419 414.016 759.419 449.041ZM715.772 388.508C709.306 388.508 703.378 391.202 698.89 395.872 694.399 400.363 691.704 406.828 691.704 414.014 691.704 420.839 694.397 427.305 698.89 431.796 703.378 436.468 709.306 439.161 715.772 439.161 722.418 439.161 728.167 436.468 732.656 431.796 737.146 427.306 739.841 420.839 739.841 414.014 739.841 406.828 737.147 400.363 732.656 395.872 728.167 391.202 722.418 388.508 715.772 388.508Z" fill="#636466" transform="matrix(1.00127 0 0 1 3587.52 1477.49)"/><path d="M793.599 346.476C793.599 351.865 789.468 356.354 783.898 356.354 778.51 356.354 774.199 351.865 774.199 346.476L774.199 342.704C774.199 337.315 778.51 333.003 783.898 333.003 789.468 333.003 793.599 337.315 793.599 342.704L793.599 346.476ZM793.599 378.987 793.599 449.04C793.599 454.429 789.468 458.74 783.898 458.74 778.51 458.74 774.199 454.429 774.199 449.04L774.199 378.987C774.199 373.24 778.51 369.107 783.898 369.107 789.469 369.107 793.599 373.24 793.599 378.987Z" fill="#636466" transform="matrix(1.00127 0 0 1 3587.52 1477.49)"/><path d="M805.942 433.043C809.175 428.734 815.463 428.195 819.413 431.607 824.084 435.56 832.168 439.688 839.172 439.51 844.021 439.51 848.512 437.895 851.387 436.098 853.901 433.942 854.618 432.148 854.618 430.709 854.618 429.811 854.439 429.453 854.081 428.912 853.9 428.374 853.183 427.655 851.744 426.759 849.23 424.962 843.841 422.985 837.375 421.729L837.195 421.729C831.626 420.651 826.237 419.214 821.568 417.057 816.718 414.723 812.407 411.49 809.174 406.64 807.198 403.407 806.121 399.456 806.121 395.325 806.121 387.061 810.791 380.056 816.718 375.565 823.005 371.255 830.55 368.92 838.813 368.92 851.206 368.92 860.007 374.848 865.756 378.798 870.068 381.673 871.324 387.601 868.629 392.089 865.756 396.401 859.828 397.659 855.338 394.605 849.591 390.834 844.561 387.958 838.813 387.958 834.322 387.958 830.371 389.395 828.035 391.191 825.7 392.809 825.162 394.425 825.162 395.323 825.162 396.041 825.162 396.221 825.521 396.759 825.702 397.118 826.24 397.836 827.497 398.555 829.834 400.172 834.503 401.788 840.61 402.867L840.79 403.047 840.97 403.047C846.899 404.123 852.467 405.741 857.675 408.256 862.525 410.411 867.375 413.824 870.429 418.853 872.585 422.444 873.842 426.577 873.842 430.708 873.842 439.509 868.992 446.874 862.525 451.543 856.058 456.033 847.974 458.729 839.173 458.729 825.164 458.55 814.386 452.084 807.201 446.336 803.248 443.103 802.71 436.994 805.942 433.043Z" fill="#636466" transform="matrix(1.00127 0 0 1 3587.52 1477.49)"/><path d="M465.318 471.948C452.7 478.525 387.332 505.401 373.416 512.656 359.5 519.913 351.769 519.842 340.776 514.586 329.782 509.331 260.22 481.233 247.69 475.243 241.427 472.249 238.134 469.724 238.134 467.337L238.134 443.437C238.134 443.437 328.694 423.722 343.315 418.477 357.935 413.232 363.007 413.043 375.448 417.6 387.891 422.158 462.285 435.581 474.582 440.084 474.582 440.084 474.576 461.43 474.576 463.646 474.578 466.009 471.741 468.601 465.318 471.948Z" fill="#A41E11" transform="matrix(1.00127 0 0 1 3587.52 1477.49)"/><path d="M465.318 448.04C452.7 454.615 387.332 481.494 373.416 488.748 359.5 496.005 351.769 495.934 340.776 490.679 329.781 485.426 260.22 457.323 247.69 451.336 235.159 445.347 234.897 441.224 247.206 436.405 259.514 431.583 328.694 404.442 343.317 399.196 357.936 393.953 363.008 393.761 375.45 398.32 387.893 402.878 452.869 428.741 465.165 433.244 477.463 437.752 477.936 441.463 465.318 448.04Z" fill="#D82C20" transform="matrix(1.00127 0 0 1 3587.52 1477.49)"/><path d="M465.318 432.973C452.7 439.551 387.332 466.427 373.416 473.684 359.5 480.938 351.769 480.867 340.776 475.612 329.781 470.359 260.22 442.258 247.69 436.269 241.427 433.275 238.134 430.752 238.134 428.366L238.134 404.462C238.134 404.462 328.694 384.749 343.315 379.503 357.935 374.259 363.007 374.068 375.448 378.626 387.891 383.183 462.285 396.604 474.582 401.108 474.582 401.108 474.576 422.454 474.576 424.672 474.578 427.034 471.741 429.626 465.318 432.973Z" fill="#A41E11" transform="matrix(1.00127 0 0 1 3587.52 1477.49)"/><path d="M465.318 409.066C452.7 415.643 387.332 442.52 373.416 449.777 359.5 457.031 351.769 456.96 340.776 451.704 329.781 446.452 260.22 418.35 247.69 412.362 235.159 406.374 234.897 402.251 247.206 397.429 259.514 392.61 328.694 365.467 343.317 360.223 357.936 354.978 363.008 354.788 375.45 359.346 387.893 363.903 452.869 389.765 465.165 394.27 477.463 398.776 477.936 402.489 465.318 409.066Z" fill="#D82C20" transform="matrix(1.00127 0 0 1 3587.52 1477.49)"/><path d="M465.318 392.553C452.7 399.13 387.332 426.008 373.416 433.265 359.5 440.519 351.769 440.449 340.776 435.193 329.781 429.94 260.22 401.838 247.69 395.85 241.427 392.856 238.134 390.332 238.134 387.947L238.134 364.044C238.134 364.044 328.694 344.33 343.315 339.086 357.935 333.84 363.007 333.651 375.448 338.208 387.891 342.766 462.285 356.186 474.582 360.691 474.582 360.691 474.576 382.037 474.576 384.254 474.578 386.614 471.741 389.206 465.318 392.553Z" fill="#A41E11" transform="matrix(1.00127 0 0 1 3587.52 1477.49)"/><path d="M465.318 368.646C452.7 375.223 387.332 402.101 373.416 409.356 359.5 416.611 351.769 416.54 340.776 411.286 329.782 406.032 260.22 377.931 247.69 371.943 235.159 365.955 234.897 361.831 247.206 357.01 259.514 352.19 328.694 325.05 343.317 319.804 357.936 314.558 363.008 314.369 375.45 318.928 387.893 323.486 452.869 349.348 465.165 353.852 477.463 358.356 477.936 362.07 465.318 368.646Z" fill="#D82C20" transform="matrix(1.00127 0 0 1 3587.52 1477.49)"/><path d="M387.341 345.628 366.853 347.755 362.266 358.791 354.857 346.476 331.2 344.349 348.853 337.983 343.557 328.212 360.084 334.675 375.665 329.574 371.454 339.679Z" fill="#FFFFFF" transform="matrix(1.00127 0 0 1 3587.52 1477.49)"/><path d="M361.043 399.169 322.805 383.31 377.597 374.901Z" fill="#FFFFFF" transform="matrix(1.00127 0 0 1 3587.52 1477.49)"/><path d="M337.315 363.114C337.315 369.383 324.203 374.466 308.03 374.466 291.856 374.466 278.744 369.383 278.744 363.114 278.744 356.844 291.856 351.762 308.03 351.762 324.203 351.762 337.315 356.844 337.315 363.114Z" fill="#FFFFFF" transform="matrix(1.00127 0 0 1 3587.52 1477.49)"/><path d="M411.554 348.644 443.982 361.46 411.582 374.261Z" fill="#7A0C00" transform="matrix(1.00127 0 0 1 3587.52 1477.49)"/><path d="M375.679 362.836 411.554 348.644 411.582 374.261 408.065 375.637Z" fill="#AD2115" transform="matrix(1.00127 0 0 1 3587.52 1477.49)"/></g></g></g><path d="M3187.5 938 3275 850.5 3275 894.25 3357 894.25 3357 850.5 3444.5 938 3357 1025.5 3357 981.75 3275 981.75 3275 1025.5Z" stroke="#B69032" stroke-width="4.58333" stroke-linejoin="round" stroke-miterlimit="10" fill="#F7C547" fill-rule="evenodd"/><g clip-path="url(#clip16)"><g clip-path="url(#clip17)"><g clip-path="url(#clip18)"><path d="M65.9246 155.529 79.2651 155.529 79.2651 191.882 102.389 191.882 102.389 203.443 65.9246 203.443 65.9246 155.529ZM116.174 179.653 116.174 179.43C116.174 165.645 127.291 154.528 142.077 154.528 156.863 154.528 167.757 165.534 167.757 179.319L167.757 179.542C167.757 193.327 156.64 204.444 141.855 204.444 127.069 204.444 116.174 193.438 116.174 179.653ZM154.195 179.653 154.195 179.43C154.195 172.538 149.192 166.535 141.855 166.535 134.628 166.535 129.737 172.427 129.737 179.319L129.737 179.542C129.737 186.434 134.74 192.438 141.966 192.438 149.414 192.438 154.195 186.545 154.195 179.653L154.195 179.653ZM183.988 182.432 183.988 155.529 197.44 155.529 197.44 182.21C197.44 189.102 200.998 192.326 206.223 192.326 211.559 192.326 215.005 189.214 215.005 182.543L215.005 155.529 228.457 155.529 228.457 182.099C228.457 197.551 219.674 204.333 206 204.333 192.549 204.333 183.988 197.44 183.988 182.432L183.988 182.432ZM248.913 155.529 267.367 155.529C284.487 155.529 294.493 165.312 294.493 179.208L294.493 179.43C294.493 193.216 284.376 203.555 267.145 203.555L248.913 203.555 248.913 155.529 248.913 155.529ZM267.7 191.659C275.594 191.659 280.93 187.324 280.93 179.542L280.93 179.319C280.93 171.648 275.594 167.202 267.7 167.202L262.364 167.202 262.364 191.548 267.7 191.659 267.7 191.659 267.7 191.659ZM313.837 155.529 352.191 155.529 352.191 167.09 327.066 167.09 327.066 175.317 349.745 175.317 349.745 186.323 327.066 186.323 327.066 203.443 313.837 203.443 313.837 155.529ZM370.534 155.529 383.763 155.529 383.763 191.882 406.998 191.882 406.998 203.443 370.534 203.443 370.534 155.529ZM441.795 155.195 454.579 155.195 475.035 203.443 460.805 203.443 457.248 194.883 438.793 194.883 435.347 203.443 421.45 203.443 441.795 155.195 441.795 155.195ZM453.468 184.544 448.132 170.981 442.795 184.544 453.468 184.544ZM492.044 155.529 514.723 155.529C522.06 155.529 527.063 157.419 530.398 160.754 533.178 163.533 534.623 167.202 534.623 171.982L534.623 172.204C534.623 179.542 530.732 184.433 524.84 186.879L536.29 203.666 520.949 203.666 511.277 189.102 505.496 189.102 505.496 203.666 492.155 203.666 492.155 155.529 492.044 155.529ZM514.056 178.541C518.614 178.541 521.171 176.318 521.171 172.871L521.171 172.649C521.171 168.869 518.392 166.979 513.945 166.979L505.274 166.979 505.274 178.43 514.056 178.43 514.056 178.541ZM553.744 155.529 592.321 155.529 592.321 166.757 566.974 166.757 566.974 173.983 589.986 173.983 589.986 184.544 566.974 184.544 566.974 192.104 592.543 192.104 592.543 203.443 553.633 203.443 553.744 155.529 553.744 155.529ZM36.9089 185.323C35.019 189.547 31.128 192.549 26.0141 192.549 18.7879 192.549 13.7852 186.434 13.7852 179.653L13.7852 179.43C13.7852 172.538 18.6768 166.646 25.9029 166.646 31.3503 166.646 35.5748 169.981 37.2424 174.539L51.25 174.539C49.0265 163.088 38.91 154.639 26.0141 154.639 11.1171 154.639 0 165.756 0 179.542L0 179.764C0 193.549 10.8948 204.555 25.6806 204.555 38.3541 204.555 48.2483 196.329 50.8053 185.434L36.9089 185.323Z" fill="#FFFFFF" transform="matrix(1.00042 0 0 1 3448.65 895)"/><path d="M576.534 79.154 539.848 58.1426 533.511 55.3633 383.652 56.3638 383.652 132.516 576.534 132.516 576.534 79.154Z" fill="#FFFFFF" transform="matrix(1.00042 0 0 1 3448.65 895)"/><path d="M509.832 125.512C511.61 119.398 510.943 113.728 507.942 109.504 505.162 105.613 500.604 103.389 495.046 103.167L389.878 101.833C389.211 101.833 388.544 101.499 388.21 100.944 387.877 100.388 387.765 99.7206 387.988 99.0536 388.321 98.0531 389.322 97.2749 390.434 97.1637L496.491 95.8297C509.053 95.2738 522.727 85.046 527.508 72.5949L533.622 56.8085C533.845 56.1415 533.956 55.4745 533.845 54.8074 527.063 23.9018 499.381 0.778199 466.475 0.778199 436.014 0.778199 410.222 20.4555 400.995 47.6925 394.992 43.2456 387.432 40.911 379.205 41.5781 364.642 43.0233 352.858 54.6963 351.412 69.3709 351.079 73.1507 351.301 76.8194 352.191 80.2657 328.4 80.9327 309.279 100.388 309.279 124.401 309.279 126.513 309.501 128.625 309.723 130.849 309.946 131.849 310.724 132.627 311.724 132.627L505.829 132.627C506.941 132.627 507.942 131.849 508.275 130.737L509.832 125.512 509.832 125.512Z" fill="#F38020" transform="matrix(1.00042 0 0 1 3448.65 895)"/><path d="M543.294 58.0314C542.405 58.0314 541.293 58.0314 540.404 58.1426 539.737 58.1426 539.07 58.6984 538.847 59.3655L534.734 73.5954C532.955 79.7098 533.622 85.3796 536.624 89.6041 539.403 93.4951 543.961 95.7185 549.52 95.9408L571.865 97.2749C572.532 97.2749 573.199 97.6084 573.533 98.1643 573.866 98.7201 573.977 99.4983 573.755 100.054 573.422 101.055 572.421 101.833 571.309 101.944L547.963 103.278C535.29 103.834 521.727 114.062 516.947 126.513L515.279 130.849C514.945 131.738 515.501 132.516 516.502 132.516L596.656 132.516C597.546 132.516 598.435 131.96 598.657 130.96 599.991 125.957 600.77 120.843 600.77 115.396 600.77 83.9343 574.978 58.0314 543.294 58.0314" fill="#FAAE40" transform="matrix(1.00042 0 0 1 3448.65 895)"/></g></g></g></g></svg>